<?xml version="1.0" encoding="UTF-8" standalone="no"?>
<svg width="22px" height="22px" viewBox="0 0 22 22" version="1.1" xmlns="http://www.w3.org/2000/svg" xmlns:xlink="http://www.w3.org/1999/xlink" xmlns:sketch="http://www.bohemiancoding.com/sketch/ns">
    <!-- Generator: Sketch 3.2 (9961) - http://www.bohemiancoding.com/sketch -->
    <title>Edit icons</title>
    <desc>Created with Sketch.</desc>
    <defs></defs>
    <g id="Page-1" stroke="none" stroke-width="1" fill="none" fill-rule="evenodd" sketch:type="MSPage">
        <g id="Proposal" sketch:type="MSArtboardGroup" transform="translate(-122.000000, -731.000000)" fill="#FFFFFF">
            <g id="Edit-icons" sketch:type="MSLayerGroup" transform="translate(117.000000, 726.000000)">
                <g id="B-+-Edit-icons" sketch:type="MSShapeGroup">
                    <path d="M0,0 L32,0 L32,32 L0,32 L0,0 Z M11.6982422,21.7578125 L11.6982422,9.7578125 L16.016987,9.7578125 C16.7601782,9.7578125 17.4249114,9.82511952 18.0112067,9.95973558 C18.5975019,10.0943516 19.0943315,10.2990199 19.5017104,10.5737466 C19.9090893,10.8484732 20.2201239,11.19325 20.4348235,11.6080872 C20.6495232,12.0229245 20.7568714,12.510557 20.7568714,13.0709993 C20.7568714,13.345726 20.7265937,13.6108332 20.6660374,13.866329 C20.6054811,14.1218248 20.5077667,14.362207 20.3728912,14.5874828 C20.2380158,14.8127587 20.0632309,15.0146797 19.8485312,15.1932521 C19.6338315,15.3718244 19.3723423,15.5188009 19.0640556,15.6341861 C19.4218883,15.7275932 19.7246654,15.8622072 19.9723958,16.0380323 C20.2201262,16.2138573 20.42106,16.417152 20.5752034,16.6479224 C20.7293467,16.8786928 20.8408237,17.1273167 20.9096377,17.3938015 C20.9784517,17.6602864 21.0128582,17.930888 21.0128582,18.2056147 C21.0128582,19.3924338 20.6330106,20.2811612 19.8733041,20.8718235 C19.1135976,21.4624858 17.9878175,21.7578125 16.49593,21.7578125 L11.6982422,21.7578125 Z M14.5966732,16.6561641 L14.5966732,19.5325378 L16.49593,19.5325378 C16.7877014,19.5325378 17.0368043,19.4968238 17.2432463,19.4253949 C17.4496883,19.353966 17.6175919,19.2564395 17.7469623,19.1328125 C17.8763326,19.0091855 17.9712945,18.8649562 18.0318508,18.7001202 C18.0924071,18.5352842 18.1226848,18.3567146 18.1226848,18.1644059 C18.1226848,17.9336355 18.0951596,17.7248464 18.0401084,17.5380323 C17.9850572,17.3512182 17.8969766,17.1932527 17.775864,17.0641312 C17.6547514,16.9350097 17.4978578,16.8347359 17.3051786,16.763307 C17.1124994,16.6918781 16.8785353,16.6561641 16.6032793,16.6561641 L14.5966732,16.6561641 Z M14.5966732,14.7605598 L16.107821,14.7605598 C16.7409098,14.7550652 17.1923229,14.6396818 17.4620737,14.4144059 C17.7318246,14.1891301 17.866698,13.8567158 17.866698,13.4171532 C17.866698,12.9116561 17.7208145,12.5476488 17.4290432,12.3251202 C17.1372718,12.1025916 16.6665912,11.991329 16.016987,11.991329 L14.5966732,11.991329 L14.5966732,14.7605598 Z" id="Rectangle-137"></path>
                </g>
            </g>
        </g>
    </g>
</svg>