<?xml version="1.0" encoding="UTF-8" standalone="no"?>
<svg width="22px" height="22px" viewBox="0 0 22 22" version="1.1" xmlns="http://www.w3.org/2000/svg" xmlns:xlink="http://www.w3.org/1999/xlink" xmlns:sketch="http://www.bohemiancoding.com/sketch/ns">
    <!-- Generator: Sketch 3.2 (9961) - http://www.bohemiancoding.com/sketch -->
    <title>Edit icons</title>
    <desc>Created with Sketch.</desc>
    <defs></defs>
    <g id="Page-1" stroke="none" stroke-width="1" fill="none" fill-rule="evenodd" sketch:type="MSPage">
        <g id="Proposal" sketch:type="MSArtboardGroup" transform="translate(-158.000000, -731.000000)" fill="#FFFFFF">
            <g id="Edit-icons" sketch:type="MSLayerGroup" transform="translate(117.000000, 726.000000)">
                <g id="I-2-+-Edit-icons" transform="translate(38.000000, 2.000000)" sketch:type="MSShapeGroup">
                    <path d="M0,0 L30,0 L30,29 L0,29 L0,0 Z M9.18010386,18.2963134 C9.0844464,18.8124424 8.96965746,19.383871 8.874,19.9 C9.71578561,19.9 10.7680176,19.8815668 11.6098032,19.8815668 C12.5472463,19.8815668 13.6186098,19.9 14.3647379,19.9 C14.4795269,19.3654378 14.5751843,18.8124424 14.6708418,18.3147465 L12.8812225,18.2410139 L15.8548029,9.61428583 C15.8548029,9.5589863 15.8548029,9.52211994 15.9121973,9.52211994 L17.5487647,9.46682028 C17.6635536,8.96912442 17.7783425,8.37926267 17.874,7.9 L15.2529857,7.9 L12.4023936,7.9 C12.3067361,8.39769585 12.1919472,8.95069124 12.0962897,9.46682028 L13.7607295,9.50368676 L10.8254121,18.1304149 C10.8062806,18.1857144 10.7680177,18.2225808 10.7297547,18.2410139 L9.18010386,18.2963134 Z" id="Rectangle-138"></path>
                </g>
            </g>
        </g>
    </g>
</svg>