<?xml version="1.0" encoding="UTF-8" standalone="no"?>
<svg width="18px" height="24px" viewBox="0 0 18 24" version="1.1" xmlns="http://www.w3.org/2000/svg" xmlns:xlink="http://www.w3.org/1999/xlink" xmlns:sketch="http://www.bohemiancoding.com/sketch/ns">
    <!-- Generator: Sketch 3.2 (9961) - http://www.bohemiancoding.com/sketch -->
    <title>Create icon 2</title>
    <desc>Created with Sketch.</desc>
    <defs></defs>
    <g id="Page-1" stroke="none" stroke-width="1" fill="none" fill-rule="evenodd" sketch:type="MSPage">
        <g id="Proposal" sketch:type="MSArtboardGroup" transform="translate(-758.000000, -139.000000)">
            <g id="Create-icon-2" sketch:type="MSLayerGroup" transform="translate(758.000000, 139.000000)">
                <rect id="Rectangle-33" stroke="#4F4F4F" stroke-width="2" fill="#4F4F4F" sketch:type="MSShapeGroup" x="1" y="1" width="15" height="22" rx="2"></rect>
                <path d="M12.668284,12.8201401 C12.2707038,12.8201401 11.781298,12.875495 11.2142127,12.9833326 C10.4207896,12.0984377 9.5938626,10.8049088 9.01039758,9.5359241 C9.58914723,6.97079943 9.20422411,6.45485008 9.07666094,6.28304104 C8.94016338,6.10052657 8.7445996,6 8.52645169,6 C8.43537059,6 8.33833323,6.01775534 8.23980681,6.05274381 C7.98939583,6.14021498 7.80028467,6.32560164 7.69381657,6.59010401 C7.38756569,7.34313939 7.80772999,8.62831281 8.23980681,9.6176509 C7.86977434,11.1647156 7.25106813,13.0167544 6.59910615,14.5186475 C4.95666824,15.3098046 4.08432475,16.0868619 4.0059007,16.8289308 C3.97760847,17.0991775 4.03741922,17.4952783 4.48885388,17.8514296 C4.61244621,17.9483006 4.75713363,18 4.90802547,18 C5.28599963,18 5.66893732,17.6939815 6.11342301,17.0396449 C6.43654996,16.5618173 6.78375012,15.9100918 7.14584092,15.1017016 C8.30582199,14.5677358 9.74078361,14.0849471 10.9705025,13.8154837 C11.6554721,14.5063754 12.2677257,14.8567823 12.7958472,14.8567823 C13.1835002,14.8567823 13.5165543,14.6695679 13.7575345,14.3136777 C14.0076973,13.9439488 14.0642818,13.6123417 13.9272878,13.3293007 C13.7590236,12.9864659 13.3470491,12.8201401 12.668284,12.8201401 L12.668284,12.8201401 Z M4.91671168,17.2294704 C4.71395076,17.0654946 4.72536692,16.9558292 4.73008229,16.9132686 C4.7573818,16.6599939 5.13411507,16.2106271 6.0598167,15.6630837 C5.3587156,17.0273728 4.98148598,17.2083206 4.91671168,17.2294704 L4.91671168,17.2294704 Z M8.3638955,6.89168371 C8.39293225,6.82040124 8.42693256,6.79559598 8.46912271,6.78123504 C8.48848055,6.77444623 8.50138577,6.77105183 8.51106469,6.76922407 C8.57732805,6.87210061 8.65227762,7.28177902 8.51106469,8.24631185 C8.34056683,7.68649637 8.25246386,7.16610819 8.3638955,6.89168371 L8.3638955,6.89168371 Z M7.57369872,14.0854693 C8.01322086,12.9830715 8.42196901,11.7650028 8.73219073,10.6372775 C9.21837022,11.5568998 9.80357249,12.4501501 10.3885266,13.1650638 C9.46431401,13.3937943 8.47880163,13.7157405 7.57369872,14.0854693 L7.57369872,14.0854693 Z M13.1626533,13.8674442 C13.0303748,14.0645807 12.8961108,14.089386 12.795599,14.089386 C12.5628086,14.089386 12.251346,13.9327212 11.8989341,13.6483746 C12.189798,13.6084251 12.4501361,13.5880587 12.668284,13.5872753 C13.0546962,13.5872753 13.209807,13.6491579 13.262917,13.6791853 C13.2534863,13.7107794 13.2291649,13.7718787 13.1626533,13.8674442 L13.1626533,13.8674442 Z" id="Shape" fill="#F2F1F1" sketch:type="MSShapeGroup"></path>
            </g>
        </g>
    </g>
</svg>