<?xml version="1.0" encoding="UTF-8" standalone="no"?>
<svg width="23px" height="26px" viewBox="0 0 23 26" version="1.1" xmlns="http://www.w3.org/2000/svg" xmlns:xlink="http://www.w3.org/1999/xlink" xmlns:sketch="http://www.bohemiancoding.com/sketch/ns">
    <!-- Generator: Sketch 3.2 (9961) - http://www.bohemiancoding.com/sketch -->
    <title>flex button</title>
    <desc>Created with Sketch.</desc>
    <defs></defs>
    <g id="Page-1" stroke="none" stroke-width="1" fill="none" fill-rule="evenodd" sketch:type="MSPage">
        <g id="Home" sketch:type="MSArtboardGroup" transform="translate(-163.000000, -15.000000)" stroke="#FFFFFF" stroke-width="2">
            <g id="TopBar" sketch:type="MSLayerGroup">
                <g id="flex-button-4" transform="translate(160.000000, 0.000000)" sketch:type="MSShapeGroup">
                    <g id="Client-Icon" transform="translate(3.000000, 15.000000)">
                        <path d="M11.5,11 C6.80732,11 3,15.03128 3,20 C3,21.65816 4.26729333,23 5.83333333,23 L17.1666667,23 C18.7327067,23 20,21.65816 20,20 C20,15.03128 16.19268,11 11.5,11 L11.5,11 Z" id="Shape"></path>
                        <path d="M16,6.5 C16,8.98448 13.98448,11 11.5,11 C9.01552,11 7,8.98448 7,6.5 C7,4.01552 9.01552,2 11.5,2 C13.98448,2 16,4.01552 16,6.5 L16,6.5 Z" id="Shape"></path>
                    </g>
                </g>
            </g>
        </g>
    </g>
</svg>