<?xml version="1.0" encoding="UTF-8" standalone="no"?>
<svg width="59px" height="60px" viewBox="0 0 59 60" version="1.1" xmlns="http://www.w3.org/2000/svg" xmlns:xlink="http://www.w3.org/1999/xlink" xmlns:sketch="http://www.bohemiancoding.com/sketch/ns">
    <!-- Generator: Sketch 3.3 (11970) - http://www.bohemiancoding.com/sketch -->
    <title>Columba logo</title>
    <desc>Created with Sketch.</desc>
    <defs></defs>
    <g id="Page-1" stroke="none" stroke-width="1" fill="none" fill-rule="evenodd" sketch:type="MSPage">
        <g id="Login" sketch:type="MSArtboardGroup" transform="translate(-480.000000, -47.000000)">
            <g id="Columba-logo" sketch:type="MSLayerGroup" transform="translate(480.000000, 47.000000)">
                <path d="M13.876013,13.3972638 C13.8214768,9.74523212 10.8731679,6.80168776 7.24412896,6.80168776 C3.61509005,6.80168776 0.666781147,9.74523212 0.612244898,13.3972638 L13.876013,13.3972638 Z" id="Oval-7" fill="#FFFFFF" sketch:type="MSShapeGroup"></path>
                <path d="M58.5714286,13.3972638 C58.5714286,28.1954727 46.6932689,40.1917913 32.0408163,40.1917913 C17.3883638,40.1917913 5.51020408,28.1954727 5.51020408,13.3972638 L58.5714286,13.3972638 Z" id="Oval-5" fill="#1072D4" sketch:type="MSShapeGroup"></path>
                <path d="M45.3061224,36.6071606 C53.2361406,31.9742606 58.5714286,23.3150218 58.5714286,13.3972638 L58.5714286,13.3972638 L32.0408163,13.3972638 C32.0408163,23.3150218 37.3761043,31.9742606 45.3061224,36.6071606 L45.3061224,36.6071606 Z" id="Oval-10" opacity="0.495627332" fill="#FFFFFF" sketch:type="MSShapeGroup"></path>
                <ellipse id="Oval-6" fill="#1072D4" sketch:type="MSShapeGroup" cx="18.7755102" cy="13.3972638" rx="13.2653061" ry="13.3972638"></ellipse>
                <g id="eye-3" transform="translate(11.020408, 6.801688)" sketch:type="MSShapeGroup">
                    <ellipse id="Oval-3" fill="#FFFFFF" cx="3.26530612" cy="3.29778801" rx="3.26530612" ry="3.29778801"></ellipse>
                    <ellipse id="Oval-4" fill="#08396A" cx="3.26530612" cy="3.29778801" rx="1.95918367" ry="1.9786728"></ellipse>
                </g>
                <text id="Columba-2" sketch:type="MSTextLayer" font-family="Lato" font-size="14.6938776" font-weight="normal" sketch:alignment="middle" fill="#FFFFFF">
                    <tspan x="1.05306122" y="58.4895793">Columba</tspan>
                </text>
            </g>
        </g>
    </g>
</svg>