<?xml version="1.0" encoding="UTF-8" standalone="no"?>
<svg width="22px" height="22px" viewBox="0 0 22 22" version="1.1" xmlns="http://www.w3.org/2000/svg" xmlns:xlink="http://www.w3.org/1999/xlink" xmlns:sketch="http://www.bohemiancoding.com/sketch/ns">
    <!-- Generator: Sketch 3.2 (9961) - http://www.bohemiancoding.com/sketch -->
    <title>Edit icons</title>
    <desc>Created with Sketch.</desc>
    <defs></defs>
    <g id="Page-1" stroke="none" stroke-width="1" fill="none" fill-rule="evenodd" sketch:type="MSPage">
        <g id="Proposal" sketch:type="MSArtboardGroup" transform="translate(-266.000000, -731.000000)" fill="#FFFFFF">
            <g id="Edit-icons" sketch:type="MSLayerGroup" transform="translate(117.000000, 724.000000)">
                <g id="Group" transform="translate(145.000000, 2.000000)" sketch:type="MSShapeGroup">
                    <path d="M0,0 L33,0 L33,33 L0,33 L0,0 Z M15,12 L22,12 L22,14 L15,14 L15,12 Z M15,18.9 L22,18.9 L22,20.9 L15,20.9 L15,18.9 Z M11.737793,14.9 L10.75,14.9 L10.75,11.0923828 L9.57080078,11.4581055 L9.57080078,10.6548828 L11.6318359,9.91660156 L11.737793,9.91660156 L11.737793,14.9 Z M12.7495117,21.9 L9.33837891,21.9 L9.33837891,21.2232422 L10.9482422,19.5074219 C11.069011,19.3752598 11.1709794,19.2544927 11.2541504,19.1451172 C11.3373214,19.0357416 11.4045408,18.9354822 11.4558105,18.8443359 C11.5070803,18.7531896 11.5435383,18.6683109 11.5651855,18.5896973 C11.5868328,18.5110836 11.5976562,18.4353194 11.5976562,18.3624023 C11.5976562,18.1413726 11.54183,17.9676276 11.4301758,17.8411621 C11.3185216,17.7146966 11.159018,17.6514648 10.9516602,17.6514648 C10.8354486,17.6514648 10.7323409,17.6725421 10.642334,17.7146973 C10.552327,17.7568524 10.4771325,17.8149573 10.416748,17.8890137 C10.3563636,17.96307 10.3102215,18.0513667 10.2783203,18.1539062 C10.2464191,18.2564458 10.2304688,18.3680984 10.2304688,18.4888672 L9.23925781,18.4888672 C9.23925781,18.2655588 9.27913372,18.0547861 9.35888672,17.856543 C9.43863972,17.6582998 9.55371019,17.4851244 9.70410156,17.3370117 C9.85449294,17.188899 10.0362131,17.0715499 10.2492676,16.9849609 C10.462322,16.898372 10.7021471,16.8550781 10.96875,16.8550781 C11.2307956,16.8550781 11.4626455,16.8875485 11.6643066,16.9524902 C11.8659678,17.017432 12.0351556,17.1102859 12.171875,17.2310547 C12.3085944,17.3518235 12.4122718,17.499934 12.4829102,17.6753906 C12.5535485,17.8508472 12.5888672,18.0479481 12.5888672,18.2666992 C12.5888672,18.4330412 12.562663,18.5936841 12.5102539,18.7486328 C12.4578448,18.9035815 12.3837895,19.0585279 12.2880859,19.2134766 C12.1923823,19.3684253 12.0767422,19.5250806 11.9411621,19.6834473 C11.805582,19.8418139 11.6546232,20.0064445 11.4882812,20.1773437 L10.6098633,21.1036133 L12.7495117,21.1036133 L12.7495117,21.9 Z" id="Rectangle-141"></path>
                </g>
            </g>
        </g>
    </g>
</svg>