<?xml version="1.0" encoding="UTF-8" standalone="no"?>
<svg width="22px" height="22px" viewBox="0 0 22 22" version="1.1" xmlns="http://www.w3.org/2000/svg" xmlns:xlink="http://www.w3.org/1999/xlink" xmlns:sketch="http://www.bohemiancoding.com/sketch/ns">
    <!-- Generator: Sketch 3.2 (9961) - http://www.bohemiancoding.com/sketch -->
    <title>Edit icons</title>
    <desc>Created with Sketch.</desc>
    <defs></defs>
    <g id="Page-1" stroke="none" stroke-width="1" fill="none" fill-rule="evenodd" sketch:type="MSPage">
        <g id="Proposal" sketch:type="MSArtboardGroup" transform="translate(-230.000000, -731.000000)" fill="#FFFFFF">
            <g id="Edit-icons" sketch:type="MSLayerGroup" transform="translate(117.000000, 724.000000)">
                <g id="Group" transform="translate(109.000000, 0.000000)" sketch:type="MSShapeGroup">
                    <path d="M0,0 L34,0 L34,36 L0,36 L0,0 Z M15,14 L22,14 L22,16 L15,16 L15,14 Z M15,21 L22,21 L22,23 L15,23 L15,21 Z M10.5,17 C11.6045695,17 12.5,16.1045695 12.5,15 C12.5,13.8954305 11.6045695,13 10.5,13 C9.3954305,13 8.5,13.8954305 8.5,15 C8.5,16.1045695 9.3954305,17 10.5,17 Z M10.5,24 C11.6045695,24 12.5,23.1045695 12.5,22 C12.5,20.8954305 11.6045695,20 10.5,20 C9.3954305,20 8.5,20.8954305 8.5,22 C8.5,23.1045695 9.3954305,24 10.5,24 Z" id="Rectangle-140"></path>
                </g>
            </g>
        </g>
    </g>
</svg>