<?xml version="1.0" encoding="UTF-8" standalone="no"?>
<svg width="22px" height="22px" viewBox="0 0 22 22" version="1.1" xmlns="http://www.w3.org/2000/svg" xmlns:xlink="http://www.w3.org/1999/xlink" xmlns:sketch="http://www.bohemiancoding.com/sketch/ns">
    <!-- Generator: Sketch 3.2 (9961) - http://www.bohemiancoding.com/sketch -->
    <title>Edit icons</title>
    <desc>Created with Sketch.</desc>
    <defs></defs>
    <g id="Page-1" stroke="none" stroke-width="1" fill="none" fill-rule="evenodd" sketch:type="MSPage">
        <g id="Proposal" sketch:type="MSArtboardGroup" transform="translate(-194.000000, -731.000000)" fill="#FFFFFF">
            <g id="Edit-icons" sketch:type="MSLayerGroup" transform="translate(117.000000, 726.000000)">
                <g id="Rectangle-80-+-U-+-Edit-icons" transform="translate(73.000000, 0.000000)" sketch:type="MSShapeGroup">
                    <path d="M0,0 L31,0 L31,32 L0,32 L0,0 Z M10,20 L19,20 L19,22 L10,22 L10,20 Z M18.0114627,10.0342898 L18.0114627,15.5683799 C18.0114627,16.1380442 17.9203178,16.6370626 17.7380252,17.0654502 C17.5557326,17.4938378 17.3058883,17.8515816 16.9884847,18.1386924 C16.6710812,18.4258032 16.3000678,18.6411331 15.8754333,18.7846885 C15.4507988,18.9282439 14.9961465,19.0000205 14.5114627,19.0000205 C14.0096219,19.0000205 13.545319,18.9282439 13.1185399,18.7846885 C12.6917608,18.6411331 12.3218196,18.4258032 12.0087053,18.1386924 C11.695591,17.8515816 11.4511082,17.4938378 11.2752495,17.0654502 C11.0993907,16.6370626 11.0114627,16.1380442 11.0114627,15.5683799 L11.0114627,10.0342898 L12.6327862,10.0342898 L12.6327862,13.2738841 L12.6327862,15.5683799 C12.6327862,15.9238504 12.6767502,16.2303252 12.7646796,16.4878135 C12.852609,16.7453017 12.9780673,16.958353 13.1410583,17.1269736 C13.3040493,17.2955943 13.5013512,17.4197792 13.73297,17.4995322 C13.9645888,17.5792852 14.2240838,17.6191611 14.5114627,17.6191611 C14.7988416,17.6191611 15.0594088,17.5792852 15.2931722,17.4995322 C15.5269357,17.4197792 15.7242376,17.2955943 15.885084,17.1269736 C16.0459304,16.958353 16.1703164,16.7453017 16.2582458,16.4878135 C16.3461751,16.2303252 16.3901392,15.9238504 16.3901392,15.5683799 L16.3901392,10.0342898 L18.0114627,10.0342898 Z" id="Rectangle-139"></path>
                </g>
            </g>
        </g>
    </g>
</svg>