<?xml version="1.0" encoding="UTF-8" standalone="no"?>
<svg width="20px" height="24px" viewBox="0 0 20 24" version="1.1" xmlns="http://www.w3.org/2000/svg" xmlns:xlink="http://www.w3.org/1999/xlink" xmlns:sketch="http://www.bohemiancoding.com/sketch/ns">
    <!-- Generator: Sketch 3.2 (9961) - http://www.bohemiancoding.com/sketch -->
    <title>Create icon 4</title>
    <desc>Created with Sketch.</desc>
    <defs></defs>
    <g id="Page-1" stroke="none" stroke-width="1" fill="none" fill-rule="evenodd" sketch:type="MSPage">
        <g id="Proposal" sketch:type="MSArtboardGroup" transform="translate(-630.000000, -139.000000)" fill="#4F4F4F">
            <g id="Email-icon" sketch:type="MSLayerGroup" transform="translate(629.000000, 139.000000)">
                <path d="M20.9779588,11.9942222 C20.9779588,11.6686667 20.778181,11.4662222 20.4975143,11.3182222 C20.4806254,11.3075556 1.50862543,3.032 1.50862543,3.032 C1.45995876,3.01 1.40862543,3 1.35662543,3 C1.28395876,3 1.21218098,3.01977778 1.14929209,3.06044444 C1.04218098,3.12933333 0.97795876,3.24866667 0.97795876,3.37466667 L0.97795876,10.8797778 C0.97795876,11.082 1.13818098,11.2466667 1.34129209,11.2544444 L20.1172921,12 L1.34129209,12.7442222 C1.13818098,12.7526667 0.97795876,12.9173333 0.97795876,13.1197778 L0.97795876,20.6248889 C0.97795876,20.7504444 1.04218098,20.8697778 1.14929209,20.9393333 C1.21195876,20.9791111 1.28395876,21 1.35662543,21 C1.40795876,21 1.45951432,20.9895556 1.50862543,20.9675556 L20.2906254,12.7775556 C20.6550699,12.6393333 20.9779588,12.3886667 20.9779588,11.9942222 L20.9779588,11.9942222 Z" id="Shape" sketch:type="MSShapeGroup"></path>
            </g>
        </g>
    </g>
</svg>