<?xml version="1.0" encoding="UTF-8" standalone="no"?>
<svg width="18px" height="24px" viewBox="0 0 18 24" version="1.1" xmlns="http://www.w3.org/2000/svg" xmlns:xlink="http://www.w3.org/1999/xlink" xmlns:sketch="http://www.bohemiancoding.com/sketch/ns">
    <!-- Generator: Sketch 3.3 (11970) - http://www.bohemiancoding.com/sketch -->
    <title>Trash icon Copy</title>
    <desc>Created with Sketch.</desc>
    <defs></defs>
    <g id="Page-1" stroke="none" stroke-width="1" fill="none" fill-rule="evenodd" sketch:type="MSPage">
        <g id="Proposal" sketch:type="MSArtboardGroup" transform="translate(-665.000000, -59.000000)" fill="#1072D4">
            <g id="Trash-icon-Copy" sketch:type="MSLayerGroup" transform="translate(665.000000, 59.000000)">
                <path d="M1.88737567,21.771621 C2.03488906,22.9957732 3.19326702,24 4.46488141,24 L13.5326702,24 C14.8048967,24 15.9641928,22.9957732 16.110482,21.771621 L18,6 L0,6 L1.88737567,21.771621 L1.88737567,21.771621 Z M13.2463752,8.68731464 C13.2893793,8.27335831 13.7125404,7.96934081 14.193499,8.00246904 C14.677554,8.03794264 15.0356928,8.40030101 14.997161,8.81337782 L13.7517602,21.3165006 C13.7118523,21.7269389 13.2838748,22.0324223 12.8056684,21.9972418 C12.3209254,21.9638204 11.9631307,21.6020484 12.0030386,21.1904374 L13.2463752,8.68731464 L13.2463752,8.68731464 Z M8,8.74930899 C8,8.3365441 8.44789009,8 8.99784102,8 C9.552895,8 10,8.33625094 10,8.74930899 L10,21.2533294 C10,21.6660943 9.552895,22 8.99784102,22 C8.44789009,22 8,21.6660943 8,21.2533294 L8,8.74930899 L8,8.74930899 Z M3.80567899,8.00246904 C4.2879043,7.96934081 4.71195967,8.27335831 4.75326377,8.68731464 L5.99651703,21.1904374 C6.03954213,21.6020484 5.6788197,21.9638204 5.19865959,21.9972418 C4.71368068,22.0324223 4.2882485,21.7269389 4.24866541,21.3165006 L3.00265854,8.81337782 C2.96548486,8.40030101 3.32242108,8.03794264 3.80567899,8.00246904 L3.80567899,8.00246904 Z" id="Shape" sketch:type="MSShapeGroup"></path>
                <path d="M11.9636778,2 C11.9852553,1.89058116 12,1.77755511 12,1.65611222 L12,1.57234469 C11.9996404,0.707014028 11.3641813,0 10.5881084,0 L7.41225126,0 C6.63689763,0 6,0.707014028 6,1.57194389 L6,1.65571142 C6,1.77715431 6.0165428,1.89018036 6.0374011,1.9995992 L11.9636778,1.9995992 L11.9636778,2 Z" id="Shape" sketch:type="MSShapeGroup"></path>
                <path d="M16.2803802,3 L1.71934257,3 C0.721175619,3.01368474 0.00415902894,3.55955398 0,4.40420679 L0,5 L18,5 L18,4.40420679 C17.9941774,3.55955398 17.2768835,3.01368474 16.2803802,3 L16.2803802,3 Z" id="Shape" sketch:type="MSShapeGroup"></path>
            </g>
        </g>
    </g>
</svg>