<?xml version="1.0" encoding="UTF-8" standalone="no"?>
<svg width="16px" height="16px" viewBox="0 0 16 16" version="1.1" xmlns="http://www.w3.org/2000/svg" xmlns:xlink="http://www.w3.org/1999/xlink" xmlns:sketch="http://www.bohemiancoding.com/sketch/ns">
    <!-- Generator: Sketch 3.2 (9961) - http://www.bohemiancoding.com/sketch -->
    <title>Shape</title>
    <desc>Created with Sketch.</desc>
    <defs></defs>
    <g id="Page-1" stroke="none" stroke-width="1" fill="none" fill-rule="evenodd" sketch:type="MSPage">
        <g id="Home" sketch:type="MSArtboardGroup" transform="translate(-928.000000, -22.000000)" fill="#FFFFFF">
            <g id="TopBar" sketch:type="MSLayerGroup">
                <g id="Settings-icon" transform="translate(928.000000, 22.000000)" sketch:type="MSShapeGroup">
                    <path d="M16,9.32748387 L16,6.67277419 L14.4707097,6.39793548 C14.3086452,5.74012903 14.0492903,5.12258065 13.708129,4.55767742 L14.5953548,3.28180645 L12.7184516,1.40490323 L11.4425806,2.29212903 C10.8774194,1.95096774 10.259871,1.69187097 9.60206452,1.52954839 L9.32696774,0 L6.67225806,0 L6.39741935,1.52929032 C5.74012903,1.6916129 5.12206452,1.95070968 4.55793548,2.29187097 L3.28154839,1.40464516 L1.40464516,3.28154839 L2.29135484,4.55741935 C1.95045161,5.12206452 1.69135484,5.73987097 1.52903226,6.39767742 L0,6.67277419 L0,9.32722581 L1.52903226,9.60232258 C1.69135484,10.259871 1.95045161,10.8776774 2.29135484,11.4423226 L1.40464516,12.7181935 L3.28154839,14.5950968 L4.55793548,13.707871 C5.12206452,14.0492903 5.74012903,14.3083871 6.39741935,14.4704516 L6.67225806,16 L9.32696774,16 L9.60180645,14.4709677 C10.2596129,14.3089032 10.8771613,14.0498065 11.4423226,13.7083871 L12.7181935,14.5956129 L14.5950968,12.7187097 L13.707871,11.4428387 C14.0490323,10.8781935 14.3083871,10.2603871 14.4704516,9.60283871 L16,9.32748387 L16,9.32748387 Z M12.3535484,8 C12.3535484,10.4043871 10.4043871,12.3540645 8.00025806,12.3540645 C5.59587097,12.3540645 3.64619355,10.4043871 3.64619355,8 C3.64619355,5.5956129 5.59587097,3.64645161 8,3.64645161 C10.404129,3.64645161 12.3535484,5.5956129 12.3535484,8 L12.3535484,8 Z" id="Shape"></path>
                </g>
            </g>
        </g>
    </g>
</svg>